<svg viewBox="0 -1 511.99871 511" xmlns="http://www.w3.org/2000/svg"><path d="m213.203125 139.769531c-.375-15.515625-6.410156-30.222656-16.761719-41.460937l-104.21875-87.671875c-4.101562-3.449219-10.160156-3.191407-13.949218.597656-4.03125 4.03125-4.03125 10.570313 0 14.601563l79.507812 79.507812c4.875 4.875 4.875 12.78125 0 17.65625l-35.28125 35.28125c-4.875 4.875-12.78125 4.875-17.65625 0l-79.507812-79.507812c-4.03125-4.03125-10.570313-4.03125-14.601563 0-3.789063 3.789062-4.050781 9.847656-.601563 13.949218l87.675782 104.21875c11.238281 10.351563 25.945312 16.386719 41.460937 16.761719l30.140625.09375c13.925782.046875 27.199219 5.90625 36.617188 16.167969l239.71875 263.1875c11.710937 12.671875 33.589844 11.085937 45.789062-1.117188 12.203125-12.199218 13.789063-34.074218 1.117188-45.789062l-263.1875-239.71875c-10.261719-9.417969-16.121094-22.691406-16.167969-36.617188zm0 0" fill="#F2994A"/><path d="m501.28125 464.222656c-.054688-.519531-.121094-1.039062-.199219-1.558594-.15625-1.035156-.359375-2.058593-.617187-3.066406-.128906-.503906-.269532-1.003906-.425782-1.5-1.386718-4.460937-3.824218-8.558594-7.386718-11.851562l-263.1875-239.71875c-1.574219-1.445313-3.035156-2.992188-4.394532-4.609375-.855468-1.015625-1.683593-2.050781-2.453124-3.128907-.496094-.695312-.976563-1.402343-1.4375-2.125-1.84375-2.878906-3.386719-5.933593-4.601563-9.121093-2.128906-5.574219-3.261719-11.542969-3.28125-17.632813l-.09375-30.144531c-.117187-4.847656-.785156-9.613281-1.96875-14.226563-.472656-1.84375-1.027344-3.660156-1.660156-5.449218-2.851563-8.042969-7.308594-15.460938-13.132813-21.78125l-104.21875-87.671875c-.515625-.433594-1.058594-.804688-1.621094-1.121094-1.414062-.789063-2.96875-1.21875-4.53125-1.292969-.625-.027344-1.253906-.003906-1.875.082032-2.171874.292968-4.261718 1.273437-5.921874 2.933593-4.03125 4.03125-4.03125 10.566407 0 14.601563l79.507812 79.507812c1.523438 1.523438 2.574219 3.34375 3.144531 5.273438.226563.769531.378907 1.558594.457031 2.355468.074219.796876.074219 1.597657 0 2.394532-.113281 1.195312-.402343 2.375-.859374 3.5-.609376 1.503906-1.523438 2.910156-2.742188 4.128906l-10.933594 10.9375 7.585938 6.382812c10.351562 11.238282 16.386718 25.945313 16.761718 41.460938 0 0 0 .320312.003907.90625.0625 15.699219 8.863281 29.84375 22.546875 37.542969.011718.007812.027344.015625.039062.023437.273438.152344.539063.316406.808594.476563.398438.234375.792969.472656 1.183594.714843.273437.171876.546875.347657.816406.527344.40625.265625.808594.535156 1.207031.8125.230469.164063.460938.320313.691407.484375.601562.4375 1.199218.886719 1.785156 1.351563.125.097656.242187.199218.367187.300781.480469.390625.960938.789063 1.429688 1.203125.195312.167969.386719.34375.582031.515625.410156.371094.816406.75 1.21875 1.136719.171875.167968.347656.332031.519531.503906.554688.546875 1.101563 1.109375 1.632813 1.6875l189.710937 208.28125 54.902344 50.007812c3.722656 3.441407 6.207031 7.761719 7.5625 12.457032 2.113281.609375 4.304687.988281 6.523437 1.144531h.003907c1.460937.105469 2.933593.109375 4.40625.023437.042969-.003906.085937-.007812.125-.007812 1.453125-.09375 2.90625-.273438 4.347656-.546875.050781-.007813.101563-.019531.152344-.03125.65625-.125 1.3125-.273437 1.964843-.4375.074219-.019531.148438-.035156.21875-.054687.703126-.179688 1.398438-.382813 2.089844-.605469.011719-.003907.023438-.007813.035156-.011719.640626-.210938 1.273438-.441406 1.90625-.6875.128907-.046875.257813-.097656.386719-.152344.628907-.253906 1.25-.519531 1.863281-.808594.015626-.007812.027344-.011718.039063-.015624.625-.296876 1.238281-.617188 1.847656-.949219.136719-.078125.277344-.15625.414063-.234375.488281-.277344.96875-.566406 1.445312-.867188.121094-.078125.246094-.152344.367188-.230468.566406-.371094 1.121094-.757813 1.664062-1.160157.109375-.082031.210938-.164062.316406-.242187.441407-.339844.875-.6875 1.300782-1.050782.140625-.117187.285156-.238281.421875-.363281.511719-.449219 1.011719-.90625 1.492187-1.386719 6.484375-6.484374 9.96875-15.695312 9.914063-24.664062-.007813-1.054688-.0625-2.109375-.167969-3.152344zm0 0" fill="#F2994A"/><path d="m410.1875 194.472656c19.039062-1.605468 36.339844-11.703125 47.101562-27.492187l23.78125-34.894531c19.476563-28.582032 27.128907-63.59375 21.347657-97.695313-.945313-5.578125-3.769531-10.453125-7.769531-14s-9.179688-5.769531-14.832032-6.039063c-34.546875-1.648437-68.394531 10.144532-94.433594 32.910157l-31.789062 27.792969c-14.386719 12.574218-22.335938 30.964843-21.648438 50.058593l1.714844 30.09375c.789063 13.902344-4.261718 27.503907-13.941406 37.519531l-248.3125 255.09375c-11.945312 12.453126-9.050781 34.191407 3.863281 45.640626 12.910157 11.445312 34.84375 11.714843 45.773438-1.636719l223.480469-277.109375c8.785156-10.804688 21.683593-17.453125 35.582031-18.335938zm0 0" fill="#F2994A"/><path d="m502.417969 34.390625c-.945313-5.578125-3.769531-10.453125-7.769531-14-1.5-1.332031-3.167969-2.476563-4.960938-3.398437-1.792969-.925782-3.71875-1.628907-5.734375-2.082032-1.339844-.300781-2.722656-.492187-4.136719-.558594-1.242187-.058593-2.484375-.09375-3.722656-.121093-.375-.007813-.75-.007813-1.125-.011719-.886719-.011719-1.769531-.011719-2.652344-.003906-.40625 0-.8125.007812-1.21875.011718-.917968.019532-1.835937.046876-2.753906.078126-.324219.015624-.652344.023437-.976562.039062-1.253907.054688-2.503907.125-3.753907.21875.308594 27.222656-7.695312 54.082031-23.214843 76.855469l-23.78125 34.890625c-8.457032 12.40625-20.949219 21.300781-35.148438 25.320312-10.871094 3.078125-21.5 6.957032-31.566406 12.082032-9.347656 4.757812-18.539063 9.511718-18.652344 9.859374-.03125.101563-.070312.203126-.101562.300782-.230469.679687-.464844 1.355468-.722657 2.023437-.050781.136719-.109375.269531-.164062.40625-.246094.628907-.5 1.257813-.773438 1.878907-.078125.171874-.160156.34375-.238281.515624-.265625.578126-.53125 1.15625-.816406 1.726563-.105469.210937-.222656.414063-.328125.625-.273438.527344-.550781 1.050781-.84375 1.570313-.140625.25-.292969.492187-.4375.738281-.277344.472656-.550781.941406-.84375 1.40625-.183594.289062-.378907.570312-.570313.859375-.273437.410156-.539062.824218-.828125 1.226562-.234375.335938-.488281.664063-.734375.992188-.257812.347656-.507812.699218-.773437 1.035156-.320313.40625-.65625.800781-.988281 1.199219-.210938.253906-.414063.511719-.632813.761719-.558594.644531-1.136719 1.273437-1.734375 1.890624l-248.3125 255.09375c-11.945312 12.453126-9.050781 34.191407 3.863281 45.640626 12.910157 11.445312 34.84375 11.714843 45.773438-1.636719l223.480469-277.109375c8.785156-10.804688 21.683593-17.453125 35.582031-18.335938l30.082031-1.90625c19.039062-1.605468 36.339844-11.703125 47.097656-27.492187l23.78125-34.894531c19.480469-28.582032 27.132813-63.59375 21.351563-97.695313zm0 0" fill="#F2994A"/><path d="m380.589844 204.039062 30.082031-1.90625c.050781-.003906.105469-.007812.160156-.011718 21.4375-1.808594 40.679688-13.039063 52.796875-30.820313l23.78125-34.890625c20.699219-30.375 28.71875-67.0625 22.574219-103.300781-1.207031-7.117187-4.847656-13.675781-10.246094-18.460937-5.402343-4.789063-12.347656-7.617188-19.558593-7.960938-36.726563-1.757812-72.175782 10.605469-99.847657 34.796875l-31.789062 27.792969c-16.199219 14.160156-25.042969 34.609375-24.269531 56.113281.003906.050781.003906.105469.007812.160156l1.714844 30.089844c.667968 11.730469-3.632813 23.304687-11.777344 31.734375l-248.351562 255.132812c-6.648438 6.933594-10.082032 16.445313-9.664063 26.785157.460937 11.382812 5.683594 22.5625 13.972656 29.910156 7.488281 6.636719 17.78125 10.417969 28.070313 10.417969 1.101562 0 2.203125-.042969 3.300781-.132813 10.316406-.824219 19.351563-5.371093 25.46875-12.847656l223.464844-277.085937c7.410156-9.117188 18.386719-14.773438 30.109375-15.515626zm-42.039063 5.859376-223.445312 277.0625c-3.414063 4.171874-8.664063 6.742187-14.78125 7.230468-7.277344.582032-14.738281-1.839844-19.964844-6.472656-5.226563-4.636719-8.523437-11.753906-8.816406-19.046875-.25-6.128906 1.667969-11.648437 5.363281-15.5l248.332031-255.113281c11.132813-11.519532 16.992188-27.296875 16.085938-43.289063l-1.714844-30.011719c-.582031-16.832031 6.351563-32.835937 19.035156-43.925781l31.789063-27.792969c24.671875-21.566406 56.289062-32.578124 89.015625-31.023437 3.726562.179687 7.3125 1.640625 10.105469 4.117187 2.792968 2.472657 4.671874 5.863282 5.296874 9.539063 5.476563 32.308594-1.671874 65.011719-20.125 92.089844l-23.78125 34.894531c-9.488281 13.921875-24.546874 22.722656-41.328124 24.164062l-30 1.898438c-15.984376 1.015625-30.945313 8.726562-41.066407 21.179688zm0 0"/><path d="m497.820312 440.570312-166.519531-151.667968c-3.132812-2.855469-7.984375-2.628906-10.84375.503906-2.851562 3.132812-2.625 7.988281.507813 10.84375l166.476562 151.632812c3.960938 3.660157 6.207032 9.054688 6.328125 15.1875.144531 7.296876-2.71875 14.597657-7.660156 19.539063-4.9375 4.9375-12.226563 7.808594-19.539063 7.660156-6.132812-.121093-11.527343-2.367187-15.148437-6.285156l-148.382813-162.90625c-2.855468-3.136719-7.710937-3.359375-10.84375-.507813-3.132812 2.855469-3.359374 7.710938-.503906 10.84375l148.417969 162.945313c6.523437 7.054687 15.8125 11.054687 26.160156 11.257813.269531.003906.535157.007812.804688.007812 11.121093 0 22.242187-4.511719 29.886719-12.160156 7.835937-7.835938 12.378906-19.308594 12.152343-30.695313-.203125-10.347656-4.199219-19.636719-11.292969-26.199219zm0 0"/><path d="m92.609375 202.585938c12.703125 11.703124 29.207031 18.375 46.472656 18.789062.054688.003906.109375.003906.160157.003906l30.140624.09375c11.75.035156 23.042969 5.023438 30.96875 13.660156l13.277344 14.574219c1.515625 1.664063 3.589844 2.507813 5.675782 2.507813 1.84375 0 3.695312-.660156 5.164062-2 3.136719-2.855469 3.363281-7.710938.507812-10.84375l-13.296874-14.59375c-10.828126-11.804688-26.226563-18.601563-42.246094-18.65625l-30.058594-.09375c-13.355469-.339844-26.125-5.453125-36.019531-14.410156l-87.347657-103.835938c-.890624-1.0625-.824218-2.601562.15625-3.582031.671876-.675781 1.460938-.773438 1.871094-.773438s1.199219.097657 1.875.773438l79.507813 79.511719c7.859375 7.859374 20.648437 7.859374 28.507812-.003907l9.34375-9.339843v-.003907l16.589844-16.589843s.003906 0 .003906-.003907c0 0 .003907-.003906.003907-.003906l9.339843-9.339844c7.859375-7.859375 7.859375-20.648437 0-28.507812l-79.507812-79.507813c-1.03125-1.03125-1.03125-2.714844 0-3.746094.980469-.980468 2.519531-1.046874 3.582031-.15625l103.835938 87.351563c8.960937 9.890625 14.074218 22.664063 14.414062 36.015625l.089844 30.0625c.054687 16.015625 6.855468 31.414062 18.675781 42.265625l14.226563 12.957031c3.136718 2.855469 7.988281 2.628906 10.84375-.503906 2.851562-3.136719 2.625-7.988281-.507813-10.84375l-14.203125-12.9375c-8.660156-7.945312-13.644531-19.242188-13.683594-30.988281l-.09375-30.140625c0-.054688 0-.109375-.003906-.164063-.414062-17.265625-7.085938-33.769531-18.789062-46.472656-.21875-.238281-.453126-.464844-.703126-.675781l-104.222656-87.671875c-7.203125-6.0625-17.65625-5.609375-24.3125 1.046875-7.019531 7.019531-7.019531 18.4375 0 25.453125l79.507813 79.511719c1.875 1.875 1.875 4.925781 0 6.800781l-3.917969 3.914062-88.613281-88.609375c-2.996094-3-7.855469-3-10.851563 0-2.996094 2.996094-2.996094 7.855469 0 10.851563l88.613282 88.613281-5.742188 5.738281-88.613281-88.609375c-2.996094-2.996094-7.855469-2.996094-10.851563 0-3 2.996094-3 7.855469 0 10.851563l88.609375 88.613281-3.914062 3.917969c-1.875 1.875-4.925781 1.875-6.800781 0l-79.511719-79.507813c-3.398438-3.398437-7.917969-5.273437-12.726563-5.273437s-9.328125 1.875-12.726562 5.273437c-6.65625 6.65625-7.105469 17.109375-1.046875 24.316406l87.675781 104.21875c.207031.25.433594.484376.671875.703126zm0 0"/></svg>